<?xml version="1.0" encoding="UTF-8"?>
<svg width="20px" height="37px" viewBox="0 0 20 37" version="1.1" xmlns="http://www.w3.org/2000/svg" xmlns:xlink="http://www.w3.org/1999/xlink">
    <title>wallbox-icon</title>
    <g id="wallbox-icon" stroke="none" stroke-width="1" fill="none" fill-rule="evenodd">
        <g fill="#FFFFFF" fill-rule="nonzero" id="Path">
            <path d="M20,8.7106383 L20,14.093617 L15.432692,14.093617 L15.432692,21.3361702 C15.432692,22.2170213 15.048077,23 13.942308,23 C12.836538,23 12.451923,22.2170213 12.451923,21.3361702 L12.451923,14.093617 L7.740385,14.093617 L7.740385,21.3361702 C7.740385,22.2170213 7.355769,23 6.25,23 C5.144231,23 4.759615,22.2170213 4.759615,21.3361702 L4.759615,14.093617 L0,14.093617 C0,8.51489362 0.048077,10.2276596 0.048077,8.7106383 C0.048077,2.83829787 5.144231,0 10.048077,0 C14.951923,0 20,2.7893617 20,8.7106383 Z"></path>
            <path d="M14.134615,28.9711538 C12.573213,28.9031417 11.110347,28.1891241 10.096154,27 L10.048077,27 C9.033883,28.1891241 7.571018,28.9031417 6.009615,28.9711538 C4.234047,28.994154 2.528294,28.2805227 1.298077,27 L0,27 C0,32.5228475 4.477153,37 10,37 C15.522847,37 20,32.5228475 20,27 L18.75,27 C17.569619,28.2944735 15.885948,29.0135415 14.134615,28.9711538 L14.134615,28.9711538 Z"></path>
        </g>
    </g>
</svg>